<svg width="25" height="25" xmlns="http://www.w3.org/2000/svg" xmlns:xlink="http://www.w3.org/1999/xlink" xml:space="preserve" overflow="hidden"><g transform="translate(-2967 -3423)"><path d="M2981.19 3435.85C2980.84 3438 2979.99 3440.03 2978.71 3441.79L2978.78 3441.85C2978.37 3441.9 2977.99 3441.95 2977.65 3442 2977.75 3441.57 2977.69 3441.13 2977.47 3440.75 2977.26 3440.43 2976.91 3440.25 2976.53 3440.26L2976.52 3440.26C2975.81 3440.26 2975.05 3440.64 2974.41 3441.07 2974.39 3441.03 2974.37 3440.99 2974.35 3440.95 2974.14 3440.58 2973.77 3440.33 2973.35 3440.27 2973.02 3440.24 2972.69 3440.29 2972.4 3440.43 2972.53 3439.87 2972.52 3439.28 2972.36 3438.72 2972.15 3438.06 2971.62 3437.54 2970.96 3437.33 2970.46 3437.17 2969.93 3437.12 2969.42 3437.2 2968.94 3437.27 2968.47 3437.4 2968.02 3437.58 2967.61 3437.73 2967.4 3438.18 2967.55 3438.58 2967.7 3438.99 2968.15 3439.2 2968.55 3439.05 2968.56 3439.05 2968.58 3439.04 2968.59 3439.04 2968.92 3438.9 2969.27 3438.8 2969.62 3438.75 2969.9 3438.71 2970.18 3438.72 2970.45 3438.81 2970.65 3438.85 2970.81 3439.01 2970.88 3439.21 2971.18 3440.12 2970.18 3442.21 2969.32 3443.5 2969.28 3443.56 2969.24 3443.61 2969.21 3443.66 2968.97 3444.02 2969.06 3444.5 2969.42 3444.75 2969.77 3444.99 2970.26 3444.89 2970.5 3444.54 2970.52 3444.51 2970.55 3444.47 2970.59 3444.41 2971.41 3443.21 2972.48 3442.09 2972.98 3441.86 2972.94 3442.09 2972.88 3442.31 2972.8 3442.52 2972.62 3442.91 2972.8 3443.37 2973.19 3443.55 2973.49 3443.68 2973.84 3443.61 2974.07 3443.38 2974.64 3442.79 2975.32 3442.3 2976.06 3441.94 2975.99 3442.18 2975.91 3442.43 2975.81 3442.66 2975.64 3443.06 2975.82 3443.52 2976.22 3443.69 2976.36 3443.75 2976.52 3443.77 2976.67 3443.74 2976.69 3443.74 2978.28 3443.44 2979.82 3443.32 2979.93 3443.31 2980.04 3443.27 2980.14 3443.22L2980.2 3443.27C2981.95 3441.99 2983.98 3441.14 2986.13 3440.8 2986.13 3440.8 2986.46 3438.98 2989.06 3436.37L2985.61 3432.92C2983 3435.52 2981.19 3435.85 2981.19 3435.85ZM2983.9 3439.07C2983.7 3439.27 2983.4 3439.33 2983.14 3439.22L2979.7 3442.65 2979.33 3442.28 2982.77 3438.85C2982.62 3438.49 2982.78 3438.08 2983.14 3437.93 2983.49 3437.78 2983.9 3437.94 2984.05 3438.3 2984.17 3438.56 2984.11 3438.87 2983.9 3439.07Z" fill="#FFFFFF"/><path d="M2985.86 3431.68 2990.31 3436.12C2990.31 3436.12 2990.75 3435.72 2991.47 3435.06L2991.47 3425.6C2988.38 3428.94 2985.86 3431.68 2985.86 3431.68Z" fill="#FFFFFF"/></g></svg>