<svg width="27" height="26" xmlns="http://www.w3.org/2000/svg" xmlns:xlink="http://www.w3.org/1999/xlink" xml:space="preserve" overflow="hidden"><g transform="translate(-2966 -3447)"><path d="M6.22917 22.2083 6.22917 3.79167 13 3.79167 13 9.47917 19.7708 9.47917 19.7708 22.2083 6.22917 22.2083ZM14.625 4.46875 18.0104 7.85417 14.625 7.85417 14.625 4.46875ZM14.625 2.16667 4.60417 2.16667 4.60417 23.8333 21.3958 23.8333 21.3958 8.125 14.625 2.16667Z" fill="#FFFFFF" transform="matrix(1.03846 0 0 1 2966 3447)"/><path d="M7.85417 12.1875 18.1458 12.1875 18.1458 13.2708 7.85417 13.2708Z" fill="#FFFFFF" transform="matrix(1.03846 0 0 1 2966 3447)"/><path d="M7.85417 10.0208 11.375 10.0208 11.375 11.1042 7.85417 11.1042Z" fill="#FFFFFF" transform="matrix(1.03846 0 0 1 2966 3447)"/><path d="M7.85417 14.3542 18.1458 14.3542 18.1458 15.4375 7.85417 15.4375Z" fill="#FFFFFF" transform="matrix(1.03846 0 0 1 2966 3447)"/><path d="M7.85417 16.5208 18.1458 16.5208 18.1458 17.6042 7.85417 17.6042Z" fill="#FFFFFF" transform="matrix(1.03846 0 0 1 2966 3447)"/><path d="M7.85417 18.6875 18.1458 18.6875 18.1458 19.7708 7.85417 19.7708Z" fill="#FFFFFF" transform="matrix(1.03846 0 0 1 2966 3447)"/></g></svg>