<svg width="19" height="20" xmlns="http://www.w3.org/2000/svg" xmlns:xlink="http://www.w3.org/1999/xlink" xml:space="preserve" overflow="hidden"><g transform="translate(-4031 -3284)"><path d="M16.9219 14.9625 14.4479 12.4885C14.1115 12.1521 13.6562 12.0333 13.2208 12.1125L12.35 11.2417C13.1219 10.2521 13.5771 8.98542 13.5771 7.63958 13.5771 4.37396 10.9052 1.70208 7.63958 1.70208 4.37396 1.70208 1.70208 4.37396 1.70208 7.63958 1.70208 10.9052 4.37396 13.5771 7.63958 13.5771 8.98542 13.5771 10.2323 13.1219 11.2417 12.35L12.1125 13.2208C12.0333 13.6562 12.1521 14.1115 12.4885 14.4479L14.9625 16.9219C15.2396 17.199 15.5958 17.3375 15.9521 17.3375 16.3083 17.3375 16.6646 17.199 16.9417 16.9219 17.4562 16.3677 17.4562 15.4969 16.9219 14.9625ZM7.61979 12.3698C5.00729 12.3698 2.86979 10.2323 2.86979 7.61979 2.86979 5.00729 5.00729 2.86979 7.61979 2.86979 10.2323 2.86979 12.3698 5.00729 12.3698 7.61979 12.3698 10.2323 10.2323 12.3698 7.61979 12.3698Z" transform="matrix(1 0 0 1.05263 4031 3284)"/></g></svg>